<svg id="Layer_1" data-name="Layer 1" xmlns="http://www.w3.org/2000/svg" viewBox="0 0 500 200"><defs><style>.cls-1{fill:#848485;}.cls-2{fill:#858585;}.cls-3{fill:#faa10f;}.cls-4{fill:#a8a8a8;}.cls-5{fill:#8c8c8c;}.cls-6{opacity:0.4;}.cls-11,.cls-6{isolation:isolate;}.cls-7{fill:#fff;}.cls-8{fill:#aaa;}.cls-9{fill:#848484;}.cls-10{fill:#ff5467;}.cls-11{fill:none;stroke:#000;stroke-miterlimit:10;opacity:0.05;}.cls-12{fill:#ffda72;}.cls-13{fill:#f0692a;}.cls-14{fill:#bbb;}.cls-15{fill:#bababb;}.cls-16{fill:#ccc;}.cls-17{fill:#515151;}.cls-18{fill:#b0afb0;}.cls-19{fill:silver;}.cls-20{fill:#7d8082;}.cls-21{fill:#c7c7c7;}.cls-22{fill:#222;}</style></defs><title>Artboard 1</title><path class="cls-1" d="M31.9,18.1A139.09,139.09,0,0,0,34.5,2L14,1.4c-.2,2.6-1.2,12.1-3.9,17.8a.69.69,0,0,1-.9.3.87.87,0,0,1-.4-.9c3-6.3,3.8-17.8,3.8-18a.56.56,0,0,1,.7-.6L35.2.6a.76.76,0,0,1,.5.2.86.86,0,0,1,.3.6,126.59,126.59,0,0,1-2.2,14.8ZM21.6,21.8a25.7,25.7,0,0,0,2.5,4l-1,1a25.29,25.29,0,0,1-2.6-4l-18-.4c.6,1.6,2.1,4.9,5.4,5,4,.1,10.2.2,14.4.2L21,28.9c-4.1,0-9.5-.1-13.1-.2-5.4-.1-6.9-6.6-7-6.9a.73.73,0,0,1,.2-.6.76.76,0,0,1,.5-.2l19.4.4A.68.68,0,0,1,21.6,21.8ZM17.8,6.3,29,6.7a.7.7,0,0,1,0,1.4L17.8,7.7a.7.7,0,1,1,0-1.4Zm4.5,10.8a.68.68,0,0,1-.7.7l-6-.2a.7.7,0,1,1,0-1.4l6,.2C22,16.4,22.4,16.7,22.3,17.1ZM17,11.2l10.5.4a.7.7,0,0,1,0,1.4L17,12.6a.7.7,0,0,1,0-1.4Zm1.9,26-1.3-2.5a4.62,4.62,0,0,0-6.5-2.1l-1.9.9H9.1c-.4.2-4.2,1.7-5.6-1.1l-1.9-4A.84.84,0,0,0,.5,28a.84.84,0,0,0-.4,1.1l1.9,4c1.6,3.2,5.3,2.8,7.3,2h.1l.3-.1.1-.1c.3-.2,1-.5,2-1a3.05,3.05,0,0,1,4.3,1.3l1.3,2.5M48.6,16.2l-4.5-4.7a1.59,1.59,0,0,0-1-.5,1.5,1.5,0,0,0-1.1.4L24,27.9a.85.85,0,0,0-.3.5L20.3,36a1.57,1.57,0,0,0,.3,1.6,1.59,1.59,0,0,0,1,.5,1.27,1.27,0,0,0,.6-.1l8-2.9a2.19,2.19,0,0,0,.5-.3L48.6,18.4l.1-.1a1.39,1.39,0,0,0,.5-1C49,16.8,48.9,16.4,48.6,16.2ZM24.5,29.3l4.7,4.9-5.8,2.1L22,34.7ZM47.7,17.4,30.2,33.5l-1.3-1.4A.1.1,0,0,0,29,32L44.6,17.7a.57.57,0,1,0-.8-.8L28.2,31.3l-.1.1-2.9-3.1L42.8,12.2a.45.45,0,0,1,.5,0l4.5,4.7a.31.31,0,0,1,.1.2A.77.77,0,0,1,47.7,17.4Z"/><path class="cls-2" d="M217.7,59.4V57.2h-2.3v2.2Zm-5.3,5.1a2.35,2.35,0,0,0,2.4-2.3,1.9,1.9,0,0,0-.5-1.3,2.58,2.58,0,0,0-1.9-1,2.28,2.28,0,0,0-1.9,1,2.35,2.35,0,0,0-.5,1.3A2.42,2.42,0,0,0,212.4,64.5Z"/><path class="cls-2" d="M212.5,50A12,12,0,1,0,225,62,12.28,12.28,0,0,0,212.5,50Zm6.7,10.8v5.3a2.56,2.56,0,0,1-2.6,2.5h-8.3a2.56,2.56,0,0,1-2.6-2.5v-8a2.56,2.56,0,0,1,2.6-2.5h8.3a2.56,2.56,0,0,1,2.6,2.5Z"/><path class="cls-2" d="M216.2,62.2a3.67,3.67,0,0,1-3.7,3.6,3.61,3.61,0,0,1-3.7-3.6,2.77,2.77,0,0,1,.3-1.3h-2v5.3a1.24,1.24,0,0,0,1.3,1.2h8.3a1.31,1.31,0,0,0,1.3-1.2V60.9h-2a5.07,5.07,0,0,1,.2,1.3Z"/><path class="cls-2" d="M112.5,50A12.28,12.28,0,0,0,100,62a12.09,12.09,0,0,0,7.5,11,14.17,14.17,0,0,1,.2-2.8l1.6-6.5a4.65,4.65,0,0,1-.4-1.9c0-1.8,1.1-3.1,2.4-3.1a1.65,1.65,0,0,1,1.7,1.8,24.72,24.72,0,0,1-1.1,4.3,1.89,1.89,0,0,0,2,2.3c2.4,0,4-2.9,4-6.4,0-2.6-1.8-4.6-5.2-4.6-3.8,0-6.2,2.7-6.2,5.7a3.65,3.65,0,0,0,.8,2.4c.2.3.3.4.2.7s-.2.8-.3,1a.42.42,0,0,1-.6.3c-1.7-.7-2.6-2.5-2.6-4.6,0-3.4,3-7.5,8.9-7.5,4.8,0,7.9,3.3,7.9,6.9,0,4.7-2.7,8.2-6.7,8.2a3.88,3.88,0,0,1-3.1-1.5s-.7,2.8-.9,3.3a12.64,12.64,0,0,1-1.3,2.6,14.08,14.08,0,0,0,3.5.5,12.06,12.06,0,1,0,.2-24.1Z"/><path class="cls-2" d="M12.5,50a12,12,0,1,0,0,24,12,12,0,1,0,0-24Zm7,17.8a1.08,1.08,0,0,1-1,1H6.5a.94.94,0,0,1-1-1V56.3a1.08,1.08,0,0,1,1-1H18.4a.94.94,0,0,1,1,1V67.8Z"/><path class="cls-2" d="M14.9,60.4a2.19,2.19,0,0,0-1.9,1v-.9H10.9v6.1H13V63.2a.75.75,0,0,1,.1-.5,1.13,1.13,0,0,1,1.1-.7c.8,0,1.1.6,1.1,1.4v3.3h2.1V63.2C17.3,61.2,16.3,60.4,14.9,60.4ZM8.7,57.6a1.13,1.13,0,0,0-1.2,1.1c0,.6.5,1,1.2,1a1.13,1.13,0,0,0,1.2-1A1.08,1.08,0,0,0,8.7,57.6Zm-1.1,9H9.7V60.5H7.6Z"/><path class="cls-2" d="M162.5,50A12,12,0,1,0,175,62,12.28,12.28,0,0,0,162.5,50Zm3.3,12h-2.2v7.4h-3.2V62h-1.5V59.4h1.5V57.7a2.93,2.93,0,0,1,3.2-3.1H166v2.5h-1.7a.62.62,0,0,0-.7.7v1.5H166ZM62.5,50A12,12,0,1,0,75,62,12.28,12.28,0,0,0,62.5,50Zm6.3,9.6V60a8.74,8.74,0,0,1-9,8.6A9,9,0,0,1,55,67.2h.8a6.76,6.76,0,0,0,3.9-1.3,3,3,0,0,1-2.9-2.1,2.2,2.2,0,0,0,1.4-.1,3.1,3.1,0,0,1-2.5-3,3.26,3.26,0,0,0,1.4.4,3.08,3.08,0,0,1-1.4-2.5,3.31,3.31,0,0,1,.4-1.5,9.67,9.67,0,0,0,6.5,3.2,1.7,1.7,0,0,1-.1-.7,3.06,3.06,0,0,1,3.2-3,2.9,2.9,0,0,1,2.3,1,6.79,6.79,0,0,0,2-.7,2.91,2.91,0,0,1-1.4,1.7,6.07,6.07,0,0,0,1.8-.5A11.37,11.37,0,0,1,68.8,59.6Z"/><path class="cls-3" d="M217.7,109.4v-2.2h-2.3v2.2Zm-5.3,5.1a2.35,2.35,0,0,0,2.4-2.3,1.9,1.9,0,0,0-.5-1.3,2.58,2.58,0,0,0-1.9-1,2.28,2.28,0,0,0-1.9,1,2.35,2.35,0,0,0-.5,1.3A2.42,2.42,0,0,0,212.4,114.5Z"/><path class="cls-3" d="M212.5,100A12,12,0,1,0,225,112,12.28,12.28,0,0,0,212.5,100Zm6.7,10.8v5.3a2.56,2.56,0,0,1-2.6,2.5h-8.3a2.56,2.56,0,0,1-2.6-2.5v-8a2.56,2.56,0,0,1,2.6-2.5h8.3a2.56,2.56,0,0,1,2.6,2.5Z"/><path class="cls-3" d="M216.2,112.2a3.67,3.67,0,0,1-3.7,3.6,3.61,3.61,0,0,1-3.7-3.6,2.77,2.77,0,0,1,.3-1.3h-2v5.3a1.24,1.24,0,0,0,1.3,1.2h8.3a1.31,1.31,0,0,0,1.3-1.2v-5.3h-2a5.07,5.07,0,0,1,.2,1.3Z"/><path class="cls-3" d="M112.5,100A12.28,12.28,0,0,0,100,112a12.09,12.09,0,0,0,7.5,11,14.17,14.17,0,0,1,.2-2.8l1.6-6.5a4.65,4.65,0,0,1-.4-1.9c0-1.8,1.1-3.1,2.4-3.1a1.65,1.65,0,0,1,1.7,1.8,24.72,24.72,0,0,1-1.1,4.3,1.89,1.89,0,0,0,2,2.3c2.4,0,4-2.9,4-6.4,0-2.6-1.8-4.6-5.2-4.6-3.8,0-6.2,2.7-6.2,5.7a3.46,3.46,0,0,0,.8,2.4c.2.3.3.4.2.7s-.2.8-.3,1a.42.42,0,0,1-.6.3c-1.7-.7-2.6-2.5-2.6-4.6,0-3.4,3-7.5,8.9-7.5,4.8,0,7.9,3.3,7.9,6.9,0,4.7-2.7,8.2-6.7,8.2a3.88,3.88,0,0,1-3.1-1.5s-.7,2.8-.9,3.3a12.64,12.64,0,0,1-1.3,2.6,14.08,14.08,0,0,0,3.5.5,12.28,12.28,0,0,0,12.5-12C125,105.4,119.4,100,112.5,100Z"/><path class="cls-3" d="M12.5,100a12,12,0,1,0,0,24,12,12,0,1,0,0-24Zm7,17.8a1.08,1.08,0,0,1-1,1H6.5a.94.94,0,0,1-1-1V106.3a1.08,1.08,0,0,1,1-1H18.4a.94.94,0,0,1,1,1v11.5Z"/><path class="cls-3" d="M14.9,110.4a2.19,2.19,0,0,0-1.9,1v-.9H10.9v6.1H13v-3.4a.75.75,0,0,1,.1-.5,1.13,1.13,0,0,1,1.1-.7c.8,0,1.1.6,1.1,1.4v3.3h2.1v-3.5C17.3,111.2,16.3,110.4,14.9,110.4Zm-6.2-2.8a1.1,1.1,0,1,0,0,2.2,1.13,1.13,0,0,0,1.2-1.1A1.08,1.08,0,0,0,8.7,107.6Zm-1.1,9H9.7v-6.1H7.6Z"/><path class="cls-3" d="M162.5,100A12,12,0,1,0,175,112,12.28,12.28,0,0,0,162.5,100Zm3.3,11.9h-2.2v7.4h-3.2v-7.4h-1.5v-2.6h1.5v-1.7a2.93,2.93,0,0,1,3.2-3.1H166V107h-1.7a.62.62,0,0,0-.7.7v1.5H166ZM62.5,100A12,12,0,1,0,75,112,12.28,12.28,0,0,0,62.5,100Zm6.3,9.6v.4a8.74,8.74,0,0,1-9,8.6,9,9,0,0,1-4.8-1.4h.8a6.76,6.76,0,0,0,3.9-1.3,3,3,0,0,1-2.9-2.1,2.2,2.2,0,0,0,1.4-.1,3.1,3.1,0,0,1-2.5-3,3.26,3.26,0,0,0,1.4.4,3.08,3.08,0,0,1-1.4-2.5,3.31,3.31,0,0,1,.4-1.5,9.67,9.67,0,0,0,6.5,3.2,1.7,1.7,0,0,1-.1-.7,3.06,3.06,0,0,1,3.2-3,2.9,2.9,0,0,1,2.3,1,6.79,6.79,0,0,0,2-.7,2.91,2.91,0,0,1-1.4,1.7,6.07,6.07,0,0,0,1.8-.5A11.37,11.37,0,0,1,68.8,109.6Z"/><path class="cls-4" d="M257.8,52a6.11,6.11,0,1,1-5.8,6.1,5.94,5.94,0,0,1,5.8-6.1m0-2a8.11,8.11,0,1,0,7.8,8.1A7.94,7.94,0,0,0,257.8,50Zm6.1,12.3,5.7,5.6a1.24,1.24,0,0,1,0,1.7,1.15,1.15,0,0,1-1.7,0L262.2,64Z"/><path class="cls-5" d="M305.9,52a4.11,4.11,0,1,1-3.9,4.1,4,4,0,0,1,3.9-4.1m0-2a6,6,0,0,0-5.9,6.1,6,6,0,0,0,5.9,6.1,6,6,0,0,0,5.9-6.1A6.09,6.09,0,0,0,305.9,50Z"/><path class="cls-5" d="M310.5,59.2l4.3,4.2s.6.7,0,1.2a.87.87,0,0,1-1.3,0l-4.3-4.2Z"/><path class="cls-6" d="M380,50a30,30,0,1,1-30,30A30,30,0,0,1,380,50Z"/><path class="cls-7" d="M380,55.5A24.55,24.55,0,1,1,355.5,80,24.54,24.54,0,0,1,380,55.5m0-3A27.55,27.55,0,1,0,407.5,80,27.48,27.48,0,0,0,380,52.5Z"/><path class="cls-7" d="M395.7,73.7a1.18,1.18,0,0,0-1-.1l-9.2,4a1.2,1.2,0,0,0-.7,1v4.5a1.2,1.2,0,0,0,.7,1l9.2,4a1.18,1.18,0,0,0,1-.1,1.05,1.05,0,0,0,.5-.9V74.7A1.39,1.39,0,0,0,395.7,73.7Zm-14.1.3H365.8a1.11,1.11,0,0,0-1.1,1.1V86.8a1.11,1.11,0,0,0,1.1,1.1h15.8a1.11,1.11,0,0,0,1.1-1.1V75.1A1.11,1.11,0,0,0,381.6,74Z"/><path class="cls-8" d="M208,20a2.43,2.43,0,0,1-2.4-2.4V3.4a2.4,2.4,0,1,1,4.8,0V17.6A2.43,2.43,0,0,1,208,20Zm5.6,0a2.43,2.43,0,0,1-2.4-2.4V7.2a2.4,2.4,0,0,1,4.8,0V17.6A2.43,2.43,0,0,1,213.6,20Zm-11.2,0a2.43,2.43,0,0,1-2.4-2.4V13.1a2.4,2.4,0,0,1,4.8,0v4.5A2.43,2.43,0,0,1,202.4,20Z"/><path class="cls-2" d="M258,20a2.43,2.43,0,0,1-2.4-2.4V3.4a2.4,2.4,0,1,1,4.8,0V17.6A2.43,2.43,0,0,1,258,20Zm5.6,0a2.43,2.43,0,0,1-2.4-2.4V7.2a2.4,2.4,0,1,1,4.8,0V17.6A2.43,2.43,0,0,1,263.6,20Zm-11.2,0a2.43,2.43,0,0,1-2.4-2.4V13.1a2.4,2.4,0,0,1,4.8,0v4.5A2.43,2.43,0,0,1,252.4,20Z"/><path class="cls-8" d="M310.5,1C316.3,1,321,4.5,321,8.8s-4.7,7.8-10.5,7.8a5.7,5.7,0,0,1-1.3-.1l-3.9,3.2a.6.6,0,0,1-1-.4V15.1c-2.7-1.4-4.4-3.7-4.4-6.4C300,4.5,304.7,1,310.5,1Z"/><path class="cls-2" d="M360.5,1C366.3,1,371,4.5,371,8.8s-4.7,7.8-10.5,7.8a5.7,5.7,0,0,1-1.3-.1l-3.9,3.2a.6.6,0,0,1-1-.4V15.1c-2.7-1.4-4.4-3.7-4.4-6.4C350,4.5,354.7,1,360.5,1Z"/><path class="cls-8" d="M123.3,15.6a1.07,1.07,0,0,1-1.4-.6L116.1,1.4a1.1,1.1,0,0,1,.6-1.4,1.07,1.07,0,0,1,1.4.6l5.8,13.6A1,1,0,0,1,123.3,15.6ZM115.4,2.2,120.8,15l-7.3.8.2,1.3a2.14,2.14,0,0,1-1.9,2.4l-2.8.4a2.07,2.07,0,0,1-2.4-1.8l-.2-1.5-2.2.2c.1.3-1.3,2.8-2,1.1L100,12.7c-.7-1.6,1.9-.9,2.1-.5ZM112.1,16l-4.3.5.2,1.4c.1.4.4.7.8.6l2.8-.4c.4-.1.7-.4.6-.8Z"/><path class="cls-9" d="M173.3,15.6a1.07,1.07,0,0,1-1.4-.6L166.1,1.4a1.1,1.1,0,0,1,.6-1.4,1.07,1.07,0,0,1,1.4.6l5.8,13.6A1,1,0,0,1,173.3,15.6ZM165.4,2.2,170.8,15l-7.3.8.2,1.3a2.21,2.21,0,0,1-1.9,2.4l-2.8.4a2.07,2.07,0,0,1-2.4-1.8l-.2-1.5-2.2.2c.1.3-1.3,2.8-2,1.1L150,12.7c-.7-1.6,1.9-.9,2.1-.5l13.3-10ZM162.1,16l-4.3.5.2,1.4c.1.4.4.7.8.6l2.8-.4c.4-.1.7-.4.6-.8Z"/><path class="cls-10" d="M271.5,101a8.34,8.34,0,0,0-6.5,3.3,8.34,8.34,0,0,0-6.5-3.3,7.55,7.55,0,0,0-7.5,7.8c0,5.2,4.6,8.9,8,11.6,1,.8,2,1.6,3,2.3,1.2.9,1.8,1.4,2.5,2a.72.72,0,0,0,1,0,27.34,27.34,0,0,1,3.8-3.1l1.7-1.3c2.8-2.1,8-6.1,8-11.6A7.46,7.46,0,0,0,271.5,101Z"/><path class="cls-11" d="M321.7,100.5a8.53,8.53,0,0,0-6.7,3.4,8.67,8.67,0,0,0-6.7-3.4,7.84,7.84,0,0,0-7.8,8.2c0,5.5,4.8,9.3,8.3,12.1,1.3,1.1,2.3,1.8,3.1,2.4a25.39,25.39,0,0,1,2.6,2.1.85.85,0,0,0,.6.2.76.76,0,0,0,.5-.2,39.11,39.11,0,0,1,3.9-3.2l1.8-1.3c2.9-2.2,8.3-6.4,8.3-12.1a7.91,7.91,0,0,0-7.9-8.2Z"/><path class="cls-7" d="M321.5,102a6.49,6.49,0,0,1,6.5,6.8c0,5-5,8.8-7.6,10.8l-1.7,1.3c-2,1.5-2.8,2.2-3.7,3-.6-.6-1.3-1.1-2.4-2-.8-.6-1.7-1.3-3-2.3-3.2-2.5-7.6-6-7.6-10.8a6.55,6.55,0,0,1,6.5-6.8,7.3,7.3,0,0,1,5.7,2.9l.8.9.8-.9a7.15,7.15,0,0,1,5.7-2.9m0-1a8.34,8.34,0,0,0-6.5,3.3,8.34,8.34,0,0,0-6.5-3.3,7.55,7.55,0,0,0-7.5,7.8c0,5.2,4.6,8.9,8,11.6,1,.8,2,1.6,3,2.3,1.2.9,1.8,1.4,2.5,2a.72.72,0,0,0,1,0,27.34,27.34,0,0,1,3.8-3.1l1.7-1.3c2.8-2.1,8-6.1,8-11.6A7.46,7.46,0,0,0,321.5,101Z"/><path class="cls-12" d="M456.5,54a2.5,2.5,0,1,1-2.5,2.5A2.48,2.48,0,0,1,456.5,54Z"/><path class="cls-13" d="M456.5,54a2.5,2.5,0,1,0,2.5,2.5A2.42,2.42,0,0,0,456.5,54Zm0,3.8a1.25,1.25,0,1,1-.1-2.5h.1a1.24,1.24,0,0,1,1.2,1.3,1.29,1.29,0,0,1-1.2,1.2Zm5.9-1.9h-1.5a.6.6,0,0,0,0,1.2h1.5a.6.6,0,1,0,0-1.2Zm-9.6.6a.58.58,0,0,0-.6-.6h-1.5a.6.6,0,1,0,0,1.2h1.5A.58.58,0,0,0,452.8,56.5Zm3.7,3.7a.58.58,0,0,0-.6.6v1.5a.6.6,0,1,0,1.2,0V60.8A.58.58,0,0,0,456.5,60.2Zm0-7.4a.58.58,0,0,0,.6-.6V50.7a.6.6,0,0,0-1.2,0v1.5A.58.58,0,0,0,456.5,52.8Zm3.6,6.3a.64.64,0,1,0-.9.9l1,1a.64.64,0,0,0,.9-.9Zm-7.2-5.2c.2.2.7.3.9,0a.75.75,0,0,0,0-.9l-1-1a.64.64,0,0,0-.9.9Zm6.7.1c.2,0,.3-.1.5-.2l1-1a.64.64,0,0,0-.9-.9l-1,1a.75.75,0,0,0,0,.9C459.3,54,459.4,54,459.6,54Zm-6.7,5.1-1,1a.56.56,0,0,0,0,.9.76.76,0,0,0,.5.2c.2,0,.3-.1.5-.2l1-1a.56.56,0,0,0,0-.9.91.91,0,0,0-1,0Z"/><path class="cls-7" d="M491,55.5a3.5,3.5,0,1,0,3.5,3.5A3.42,3.42,0,0,0,491,55.5Zm0,5.2a1.75,1.75,0,1,1,1.8-1.7A1.71,1.71,0,0,1,491,60.7Zm8.1-2.6h-2a.9.9,0,0,0,0,1.8h2a.9.9,0,0,0,0-1.8Zm-13.3.9a.9.9,0,0,0-.9-.9h-2a.9.9,0,1,0,0,1.8h2A.9.9,0,0,0,485.8,59Zm5.2,5.2a.9.9,0,0,0-.9.9v2a.77.77,0,0,0,.9.8.79.79,0,0,0,.8-.8v-2A.77.77,0,0,0,491,64.2Zm0-10.4a.9.9,0,0,0,.9-.9v-2a.9.9,0,1,0-1.8,0v2A.9.9,0,0,0,491,53.8Zm4.9,8.9a.92.92,0,0,0-1.3,1.3l1.4,1.4a1.05,1.05,0,0,0,1.3,0,.91.91,0,0,0,0-1.2Zm-9.8-7.4a.91.91,0,0,0,1.2,0,1,1,0,0,0,0-1.3l-1.4-1.4a.92.92,0,0,0-1.3,1.3l1.5,1.4Zm9.2.3a.71.71,0,0,0,.6-.3l1.4-1.4a.92.92,0,0,0-1.3-1.3L494.6,54a.93.93,0,0,0,0,1.3,1.08,1.08,0,0,0,.7.3Zm-9.2,7.1-1.4,1.4a.93.93,0,0,0,0,1.3.86.86,0,0,0,.6.3.71.71,0,0,0,.6-.3l1.4-1.4a.85.85,0,0,0,0-1.3.75.75,0,0,0-1.2,0Z"/><path class="cls-14" d="M456.6,102a4.72,4.72,0,0,1,4.6,4.9,4.61,4.61,0,1,1-4.6-4.9m0-2a6.91,6.91,0,1,0,6.6,6.9A6.73,6.73,0,0,0,456.6,100Zm5.3,10.5,4.9,4.8s.7.8,0,1.4a.89.89,0,0,1-1.4,0l-4.9-4.8Z"/><path class="cls-7" d="M489.6,102a4.72,4.72,0,0,1,4.6,4.9,4.61,4.61,0,1,1-4.6-4.9m0-2a6.91,6.91,0,1,0,6.6,6.9A6.73,6.73,0,0,0,489.6,100Zm5.3,10.5,4.9,4.8s.7.8,0,1.4a.89.89,0,0,1-1.4,0l-4.9-4.8Z"/><path class="cls-15" d="M459.5,125.1l1.3,1.2c.2.2.2.5,0,.6l-7.8,7.8a.48.48,0,0,1-.7,0l-1.3-1.2a.38.38,0,0,1,0-.6l7.8-7.8A.82.82,0,0,1,459.5,125.1Z"/><path class="cls-15" d="M460.9,141.6l-1.3,1.2a.48.48,0,0,1-.7,0l-8.8-8.6a.37.37,0,0,1,0-.6l1.3-1.2a.48.48,0,0,1,.7,0l8.8,8.6A.64.64,0,0,1,460.9,141.6Z"/><path class="cls-7" d="M.5,150.5h14v14H.5Z"/><path class="cls-16" d="M14,151v13H1V151H14m1-1H0v15H15Z"/><path class="cls-7" d="M.5,175.5h19v19H.5Z"/><path class="cls-16" d="M19,176v18H1V176H19m1-1H0v20H20Z"/><path class="cls-17" d="M50,150H65v15H50Z"/><path class="cls-7" d="M62.8,156l-5.1,4.9-1,.9a.72.72,0,0,1-1,0l-1-.9-2.6-2.4a.56.56,0,0,1,0-.9l1-.9a.67.67,0,0,1,1,0l2.1,2,4.7-4.4a.67.67,0,0,1,1,0l1,.9a.76.76,0,0,1,.2.5c0,.2-.2.2-.3.3Z"/><path class="cls-17" d="M50,175H70v20H50Z"/><path class="cls-7" d="M67.1,183l-6.8,6.5L59,190.7c-.2.2-.4.3-.6.2a1.07,1.07,0,0,1-.6-.2l-1.3-1.2-3.4-3.2a.75.75,0,0,1,0-1.2l1.3-1.2a.86.86,0,0,1,.6-.3,1.07,1.07,0,0,1,.6.2l2.8,2.6,6.2-5.9c.2-.2.4-.3.6-.2a1.07,1.07,0,0,1,.6.2l1.3,1.2a.86.86,0,0,1,.3.6A2.39,2.39,0,0,1,67.1,183Z"/><circle class="cls-7" cx="108" cy="158" r="7.5"/><path class="cls-18" d="M108,151a7,7,0,1,1-7,7,7,7,0,0,1,7-7m0-1a8,8,0,1,0,8,8A8,8,0,0,0,108,150Z"/><path class="cls-10" d="M108,154a4,4,0,1,1-4,4A4,4,0,0,1,108,154Z"/><path class="cls-7" d="M128,167.5a3,3,0,1,1-3,3A2.95,2.95,0,0,1,128,167.5Z"/><circle class="cls-7" cx="133" cy="158" r="7.5"/><path class="cls-18" d="M133,151a7,7,0,1,1-7,7,7,7,0,0,1,7-7m0-1a8,8,0,1,0,8,8A8,8,0,0,0,133,150Z"/><circle class="cls-7" cx="183" cy="158" r="7.5"/><path class="cls-19" d="M183,151a7,7,0,1,1-7,7,7,7,0,0,1,7-7m0-1a8,8,0,1,0,8,8A8,8,0,0,0,183,150Z"/><circle class="cls-17" cx="158" cy="158" r="7.5"/><path class="cls-17" d="M158,151a7,7,0,1,1-7,7,7,7,0,0,1,7-7m0-1a8,8,0,1,0,8,8A8,8,0,0,0,158,150Z"/><path class="cls-7" d="M158,155a3,3,0,1,1-3,3A2.95,2.95,0,0,1,158,155Z"/><path class="cls-20" d="M213,159l-6.3-6.5v3.9H200v5.9h6.7v3.2L213,159Zm5.6-9H213v3.5h5.6v11H213V168h9V150Zm50.1,0h-6.3a1.44,1.44,0,0,0-1.3,1.5v5a1.44,1.44,0,0,0,1.3,1.5h6.3a1.44,1.44,0,0,0,1.3-1.5v-5A1.44,1.44,0,0,0,268.7,150Zm-11,0h-6.3a1.44,1.44,0,0,0-1.3,1.5v5a1.44,1.44,0,0,0,1.3,1.5h6.3a1.44,1.44,0,0,0,1.3-1.5v-5A1.44,1.44,0,0,0,257.7,150Zm11,10h-6.3a1.35,1.35,0,0,0-1.3,1.4v5.2a1.42,1.42,0,0,0,1.3,1.4h6.3a1.35,1.35,0,0,0,1.3-1.4v-5.2A1.35,1.35,0,0,0,268.7,160Zm-11,0h-6.3a1.35,1.35,0,0,0-1.3,1.4v5.2a1.42,1.42,0,0,0,1.3,1.4h6.3a1.35,1.35,0,0,0,1.3-1.4v-5.2A1.35,1.35,0,0,0,257.7,160Z"/><path class="cls-2" d="M458.5,16a1.79,1.79,0,0,0-1.8,1.8,1.75,1.75,0,0,0,1.7,1.7,1.79,1.79,0,0,0,1.8-1.8A2,2,0,0,0,458.5,16Zm6.8,0a1.79,1.79,0,0,0-1.8,1.8,1.75,1.75,0,0,0,1.7,1.7,1.79,1.79,0,0,0,1.8-1.8A1.92,1.92,0,0,0,465.3,16Zm3.5-10.8H455.2l-.5-2.9a1.22,1.22,0,0,0-.9-.8h-3.1c-.5,0-.7.4-.7.9s.2.9.8.9h2.1l2.3,10.8a1.07,1.07,0,0,0,1.1.9h11.2a1.09,1.09,0,0,0,1.1-1L470,6.7c.1-.9-.4-1.6-1.2-1.5Z"/><path class="cls-8" d="M408.5,16a1.79,1.79,0,0,0-1.8,1.8,1.75,1.75,0,0,0,1.7,1.7,1.79,1.79,0,0,0,1.8-1.8A2,2,0,0,0,408.5,16Zm6.8,0a1.79,1.79,0,0,0-1.8,1.8,1.75,1.75,0,0,0,1.7,1.7,1.79,1.79,0,0,0,1.8-1.8A1.92,1.92,0,0,0,415.3,16Zm3.5-10.8H405.2l-.5-2.9a1.22,1.22,0,0,0-.9-.8h-3.1c-.5,0-.7.4-.7.9s.2.9.8.9h2.1l2.3,10.8a1.07,1.07,0,0,0,1.1.9h11.2a1.09,1.09,0,0,0,1.1-1L420,6.7c.1-.9-.4-1.6-1.2-1.5Z"/><path class="cls-21" d="M405.9,40.5a1.32,1.32,0,0,0-1.3,1.3,1.22,1.22,0,0,0,1.2,1.2,1.32,1.32,0,0,0,1.3-1.3A1.22,1.22,0,0,0,405.9,40.5Zm4.8,0a1.32,1.32,0,0,0-1.3,1.3,1.22,1.22,0,0,0,1.2,1.2,1.32,1.32,0,0,0,1.3-1.3A1.29,1.29,0,0,0,410.7,40.5Zm2.5-7.8h-9.5l-.3-2.1a.9.9,0,0,0-.6-.6h-2.2c-.3,0-.5.3-.5.7s.1.7.6.7h1.5l1.6,7.8a.85.85,0,0,0,.8.7h7.8a.85.85,0,0,0,.8-.7l1-5.3c-.1-.8-.5-1.3-1-1.2Z"/><path class="cls-7" d="M312.7,171.8a2.69,2.69,0,0,0-2.7,2.7,2.63,2.63,0,0,0,2.5,2.6,2.69,2.69,0,0,0,2.7-2.7A2.79,2.79,0,0,0,312.7,171.8Zm10.2,0a2.69,2.69,0,0,0-2.7,2.7,2.63,2.63,0,0,0,2.5,2.6,2.65,2.65,0,0,0,.2-5.3Zm5.3-16.2H307.8l-.8-4.4a1.74,1.74,0,0,0-1.4-1.2H301c-.8,0-1,.6-1,1.4s.3,1.4,1.2,1.4h3.1l3.4,16.2a1.6,1.6,0,0,0,1.6,1.4h16.8a1.56,1.56,0,0,0,1.6-1.5l2.1-10.9C330.1,156.5,329.4,155.4,328.2,155.6Zm32.4,12.1a2.22,2.22,0,0,0-2.2,2.2,2.18,2.18,0,0,0,2.1,2.1,2.22,2.22,0,0,0,2.2-2.2A2.44,2.44,0,0,0,360.6,167.7Zm8.5,0a2.22,2.22,0,0,0-2.2,2.2A2.18,2.18,0,0,0,369,172a2.22,2.22,0,0,0,2.2-2.2A2.34,2.34,0,0,0,369.1,167.7Zm4.4-13.2h-17l-.6-3.5a1.41,1.41,0,0,0-1.1-1h-3.9c-.6,0-.9.5-.9,1.1s.2,1.1,1,1.1h2.6l2.9,13.2a1.39,1.39,0,0,0,1.4,1.1h14a1.4,1.4,0,0,0,1.4-1.2l1.8-8.9c0-1.1-.6-2-1.6-1.9Z"/><ellipse class="cls-9" cx="112.5" cy="185.2" rx="12.5" ry="12"/><path class="cls-7" d="M104.8,185a4.83,4.83,0,0,1,8-3.3c-.4.4-.8.9-1.2,1.3a3,3,0,0,0-3.7-.1,3.06,3.06,0,0,0-.1,4.8c1.5,1.3,4.2.7,4.6-1.4h-2.7v-1.6h4.6a5.42,5.42,0,0,1-.9,3.7,4.52,4.52,0,0,1-5.4,1.4,5,5,0,0,1-3.2-4.8Zm12.3-1.8h1.4v1.4h1.4V186h-1.4v1.4h-1.4V186h-1.4v-1.4h1.4v-1.4Z"/><ellipse class="cls-3" cx="162.5" cy="185.2" rx="12.5" ry="12"/><path class="cls-7" d="M154.8,185a4.83,4.83,0,0,1,8-3.3c-.4.4-.8.9-1.2,1.3a3,3,0,0,0-3.7-.1,3.06,3.06,0,0,0-.1,4.8c1.5,1.3,4.2.7,4.6-1.4h-2.7v-1.6h4.6a5.42,5.42,0,0,1-.9,3.7,4.52,4.52,0,0,1-5.4,1.4,4.78,4.78,0,0,1-3.2-4.8Zm12.3-1.8h1.4v1.4h1.4V186h-1.4v1.4h-1.4V186h-1.4v-1.4h1.4v-1.4Z"/><circle class="cls-7" cx="303" cy="132" r="7.5"/><circle class="cls-7" cx="418" cy="183" r="7.5"/><path class="cls-18" d="M418,176a7,7,0,1,1-7,7,7,7,0,0,1,7-7m0-1a8,8,0,1,0,8,8A8,8,0,0,0,418,175Z"/><path class="cls-22" d="M414.2,184.1a4,4,0,1,1,7.7-2.3,4,4,0,0,1-2.7,5A3.94,3.94,0,0,1,414.2,184.1Z"/></svg>