<svg xmlns="http://www.w3.org/2000/svg" width="176.865" height="163.434" viewBox="0 0 176.865 163.434">
  <g id="Group_1006" data-name="Group 1006" transform="translate(0 0)">
    <path id="Path_862" data-name="Path 862" d="M215.458,143.094a10.732,10.732,0,0,0-10.72,10.72v123.5a10.732,10.732,0,0,0,10.72,10.72h90.595a10.732,10.732,0,0,0,10.72-10.72v-123.5a10.732,10.732,0,0,0-10.72-10.72Z" transform="translate(-204.739 -130.042)" fill="#3f3d56"/>
    <rect id="Rectangle_146" data-name="Rectangle 146" width="100.885" height="129.709" transform="translate(5.575 20.666)" fill="#fff"/>
    <rect id="Rectangle_147" data-name="Rectangle 147" width="74.508" height="4.895" transform="translate(18.763 43.916)" fill="#ff5467"/>
    <rect id="Rectangle_148" data-name="Rectangle 148" width="74.508" height="4.895" transform="translate(18.763 56.968)" fill="#ff5467"/>
    <rect id="Rectangle_149" data-name="Rectangle 149" width="74.508" height="4.895" transform="translate(18.763 70.021)" fill="#ff5467"/>
    <rect id="Rectangle_150" data-name="Rectangle 150" width="74.508" height="4.895" transform="translate(18.763 83.073)" fill="#ff5467"/>
    <rect id="Rectangle_151" data-name="Rectangle 151" width="74.508" height="4.895" transform="translate(18.763 96.126)" fill="#ff5467"/>
    <rect id="Rectangle_152" data-name="Rectangle 152" width="74.508" height="4.895" transform="translate(18.763 109.178)" fill="#ff5467"/>
    <rect id="Rectangle_153" data-name="Rectangle 153" width="74.508" height="4.895" transform="translate(18.763 122.231)" fill="#ff5467"/>
    <rect id="Rectangle_154" data-name="Rectangle 154" width="75.109" height="96.568" transform="translate(20.438 25.962) rotate(-10.37)" fill="#e6e6e6"/>
    <rect id="Rectangle_155" data-name="Rectangle 155" width="55.471" height="3.644" transform="translate(33.212 41.221) rotate(-10.37)" fill="#ff5467"/>
    <rect id="Rectangle_156" data-name="Rectangle 156" width="55.471" height="3.644" transform="translate(34.961 50.78) rotate(-10.37)" fill="#ff5467"/>
    <rect id="Rectangle_157" data-name="Rectangle 157" width="55.471" height="3.644" transform="translate(36.71 60.339) rotate(-10.37)" fill="#ff5467"/>
    <rect id="Rectangle_158" data-name="Rectangle 158" width="55.471" height="3.644" transform="translate(38.46 69.898) rotate(-10.37)" fill="#ff5467"/>
    <rect id="Rectangle_159" data-name="Rectangle 159" width="55.471" height="3.644" transform="translate(40.209 79.456) rotate(-10.37)" fill="#ff5467"/>
    <rect id="Rectangle_160" data-name="Rectangle 160" width="55.471" height="3.644" transform="translate(41.958 89.015) rotate(-10.37)" fill="#ff5467"/>
    <rect id="Rectangle_161" data-name="Rectangle 161" width="55.471" height="3.644" transform="translate(43.707 98.574) rotate(-10.37)" fill="#ff5467"/>
    <rect id="Rectangle_162" data-name="Rectangle 162" width="21.252" height="27.324" transform="translate(125.708 120.18) rotate(-10.37)" fill="#e6e6e6"/>
    <rect id="Rectangle_163" data-name="Rectangle 163" width="15.696" height="1.031" transform="translate(129.322 124.497) rotate(-10.37)" fill="#fff"/>
    <rect id="Rectangle_164" data-name="Rectangle 164" width="15.696" height="1.031" transform="translate(129.818 127.202) rotate(-10.37)" fill="#fff"/>
    <rect id="Rectangle_165" data-name="Rectangle 165" width="15.696" height="1.031" transform="translate(130.312 129.907) rotate(-10.37)" fill="#fff"/>
    <rect id="Rectangle_166" data-name="Rectangle 166" width="15.696" height="1.031" transform="translate(130.807 132.611) rotate(-10.37)" fill="#fff"/>
    <rect id="Rectangle_167" data-name="Rectangle 167" width="15.696" height="1.031" transform="translate(131.302 135.316) rotate(-10.37)" fill="#fff"/>
    <rect id="Rectangle_168" data-name="Rectangle 168" width="15.696" height="1.031" transform="translate(131.797 138.021) rotate(-10.37)" fill="#fff"/>
    <rect id="Rectangle_169" data-name="Rectangle 169" width="15.696" height="1.031" transform="translate(132.292 140.725) rotate(-10.37)" fill="#fff"/>
    <path id="Path_863" data-name="Path 863" d="M391.71,91.552h-8.89v-1.82a4.978,4.978,0,0,0-4.978-4.978H368.22a4.978,4.978,0,0,0-4.978,4.978v1.82h-8.89a4.978,4.978,0,0,0-4.978,4.978v13.785h47.315V96.53a4.978,4.978,0,0,0-4.978-4.978Z" transform="translate(-317.014 -84.754)" fill="#3f3d56"/>
    <path id="Path_864" data-name="Path 864" d="M438.786,695.858a15.662,15.662,0,0,1,4.726-2.509,4.971,4.971,0,0,1,4.681.859,2.868,2.868,0,0,1,.693,3.625,2.3,2.3,0,0,1-1.526,1.111,1.839,1.839,0,0,1-1.653-.646,1.686,1.686,0,0,1-.421-1.657,2.17,2.17,0,0,1,1.391-1.181,10.291,10.291,0,0,1,2.074-.428l2.884-.395,11.806-1.616,13.148-1.8a.411.411,0,0,0,.285-.5.419.419,0,0,0-.5-.285l-26.161,3.581c-.946.13-1.906.222-2.842.413a4.78,4.78,0,0,0-2.041.848,2.436,2.436,0,0,0-.01,3.785,2.7,2.7,0,0,0,3.885-.291,3.522,3.522,0,0,0,.267-4.316,5.233,5.233,0,0,0-5.1-2.095,13.9,13.9,0,0,0-5.99,2.794c-.431.295-.023,1,.412.7Z" transform="translate(-385.96 -554.915)" fill="#3f3d56"/>
    <path id="Path_865" data-name="Path 865" d="M850.784,579.591l.272,2.719s-1.632,5.982,1.9,5.982.816-5.982.816-5.982l.272-2.175Z" transform="translate(-706.162 -468.881)" fill="#a0616a"/>
    <path id="Path_866" data-name="Path 866" d="M948.037,539.1l-1.248,2.431s-4.618,4.139-1.649,6.058,3.933-4.581,3.933-4.581l1.409-1.679Z" transform="translate(-778.716 -437.447)" fill="#a0616a"/>
    <path id="Path_867" data-name="Path 867" d="M870.591,582.981l3.807,25.833,1.9,18.491s1.632,4.079,7.07.544l-.816-10.605-.544-9.517s-.544-9.245-1.088-10.877.272-7.07.272-7.07l2.175-8.974Z" transform="translate(-721.619 -469.823)" fill="#2f2e41"/>
    <path id="Path_868" data-name="Path 868" d="M876.618,786.211l-2.175,2.447s-3.263-1.088-4.079,1.088,6.254,2.719,6.254,2.719,7.342.544,7.342,0-.2-4.7-1.186-4.935S876.618,786.211,876.618,786.211Z" transform="translate(-721.392 -629.273)" fill="#2f2e41"/>
    <path id="Path_869" data-name="Path 869" d="M916.777,577.847l3.807,27.193,1.9,18.491s1.632,4.079,7.07.544l-.816-10.605-.544-9.517s-.544-9.245-1.088-10.877.272-7.07.272-7.07l-.544-10.061Z" transform="translate(-757.471 -466.049)" fill="#2f2e41"/>
    <path id="Path_870" data-name="Path 870" d="M922.8,786.211l-2.175,2.447s-3.263-1.088-4.079,1.088,6.254,2.719,6.254,2.719,7.342.544,7.342,0-.2-4.7-1.186-4.935S922.8,786.211,922.8,786.211Z" transform="translate(-757.244 -629.273)" fill="#2f2e41"/>
    <circle id="Ellipse_69" data-name="Ellipse 69" cx="5.71" cy="5.71" r="5.71" transform="translate(145.437 57.413)" fill="#a0616a"/>
    <path id="Path_871" data-name="Path 871" d="M678.376,293.685l2.447,4.079-6.254,2.719-.816-4.895Z" transform="translate(-523.013 -227.979)" fill="#a0616a"/>
    <path id="Path_872" data-name="Path 872" d="M862.908,394.743s-5.711-.544-7.886,2.991l-5.367,4.079a3.094,3.094,0,0,0-1.2,2.869l4.659,35.2,6.8-.272,11.149-2.175,3.263-.816L872.7,422.208s-1.9-5.71.272-9.517l-1.088-13.324-7.614-2.991Z" transform="translate(-704.418 -325.366)" fill="#ff5467"/>
    <path id="Path_873" data-name="Path 873" d="M848.458,428.951l-.408-.68s-.544,0-.544,1.088-.952,24.609-.952,24.609l-.272,8.974,5.167.544,1.9-16.859-.816-11.149Z" transform="translate(-702.749 -351.416)" fill="#ff5467"/>
    <path id="Path_874" data-name="Path 874" d="M936.224,413.079l3.807.544a25.273,25.273,0,0,1,3.807,5.167c1.632,2.991,6.526,8.7,5.438,13.053a121.364,121.364,0,0,1-4.351,12.237l-5.167-2.175s4.079-9.517,3.807-10.333-3.535-5.71-3.535-5.71Z" transform="translate(-772.567 -339.623)" fill="#ff5467"/>
    <path id="Path_875" data-name="Path 875" d="M853.535,337.072s-4.623-.272-1.632-3.263c0,0,2.447-1.088,3.535-.544,0,0,1.631-1.088,1.631-.544,0,0,5.71-1.632,6.526,4.079s-.544,8.43-.544,8.43l-3.807-.272s.816-4.623-2.175-4.079c0,0-2.447.816-2.719,0S853.535,337.072,853.535,337.072Z" transform="translate(-706.33 -277.076)" fill="#2f2e41"/>
    <path id="Path_876" data-name="Path 876" d="M666.733,407.572l2.447-16.315L667.549,381.2l.544,10.944-1.631,15.433Z" transform="translate(-517.352 -295.91)" opacity="0.2"/>
  </g>
</svg>
